# xmcd CD database file
#
# Track frame offsets:
#	150
#	16167
#	30117
#	42827
#	71030
#	86787
#	105677
#	131380
#	154260
#	189995
#	206037
#
# Disc length: 2902 seconds
#
# Revision: 0
# Processed by: cddbd v1.5.2PL0 Copyright (c) Steve Scherf et al.
# Submitted via: CDex 1.51
#
DISCID=880b540b
DTITLE=Anita O'day - Skylark
DYEAR=1994
DGENRE=Jazz
TTITLE0=On a Clear Day (You Can See Forever) 
TTITLE1=Candle Light And Wine
TTITLE2=I Don't Mean A Thing If It Ain't Got That Swing
TTITLE3=This Is All I Ask
TTITLE4=Lover, Come Back To Me
TTITLE5=Skylark
TTITLE6=Like Someone In Love
TTITLE7=I'm Getting Sentimental Over You
TTITLE8=Night And Day
TTITLE9=My Funny Valentine
TTITLE10=Four Brothers
EXTD=YEAR: 1994
EXTT0=
EXTT1=
EXTT2=
EXTT3=
EXTT4=
EXTT5=
EXTT6=
EXTT7=
EXTT8=
EXTT9=
EXTT10=
PLAYORDER=
